<svg width="134" height="80" viewBox="0 0 134 80" fill="none" xmlns="http://www.w3.org/2000/svg">
<path d="M90.3779 41.5321L108.04 0H108.483L133.059 59.7531H124.944L106.122 11.2129L111.212 7.89331L98.3766 41.5321H90.3779ZM98.3766 35.3355H118.22L120.581 41.5321H96.311L98.3766 35.3355Z" fill="#213786"/>
<path d="M7.50339 35.1985H0V31.9315H18.632V35.1985H11.1286V59.7531H7.50339V35.1985Z" fill="#213786"/>
<path d="M24.7196 59.7531H21.0733V42.4489H24.7196V45.4419H24.6142C24.6845 45.0765 24.9444 44.6199 25.3941 44.0719C25.8437 43.5239 26.462 43.0321 27.2488 42.5965C28.0357 42.1609 28.9772 41.9431 30.0732 41.9431C30.8741 41.9431 31.5766 42.0555 32.1808 42.2803C32.7991 42.4911 33.2347 42.7019 33.4876 42.9126L31.9912 45.9477C31.7944 45.751 31.4502 45.5543 30.9584 45.3575C30.4666 45.1468 29.8554 45.0414 29.1247 45.0414C28.1973 45.0414 27.4034 45.3294 26.743 45.9055C26.0826 46.4817 25.5767 47.1772 25.2255 47.9922C24.8882 48.7931 24.7196 49.5378 24.7196 50.2263V59.7531Z" fill="#213786"/>
<path d="M49.3931 59.7531V56.3808C49.2807 56.7321 48.9505 57.2168 48.4025 57.8351C47.8686 58.4533 47.1309 59.0154 46.1894 59.5212C45.262 60.013 44.166 60.2589 42.9014 60.2589C41.2996 60.2589 39.8453 59.8796 38.5385 59.1208C37.2458 58.362 36.213 57.3011 35.4402 55.9382C34.6814 54.5611 34.302 52.9523 34.302 51.1115C34.302 49.2708 34.6814 47.669 35.4402 46.306C36.213 44.929 37.2458 43.8611 38.5385 43.1023C39.8453 42.3295 41.2996 41.9431 42.9014 41.9431C44.152 41.9431 45.2339 42.1679 46.1473 42.6175C47.0747 43.0672 47.8124 43.5871 48.3604 44.1772C48.9224 44.7674 49.2526 45.2732 49.351 45.6948V42.4489H52.9762V59.7531H49.3931ZM37.9273 51.1115C37.9273 52.3621 38.2013 53.4441 38.7493 54.3574C39.2973 55.2707 40.0069 55.9803 40.878 56.4862C41.7633 56.978 42.7047 57.2239 43.7024 57.2239C44.7703 57.2239 45.7257 56.9709 46.5688 56.4651C47.4119 55.9592 48.0793 55.2496 48.5711 54.3363C49.0629 53.4089 49.3088 52.334 49.3088 51.1115C49.3088 49.8891 49.0629 48.8212 48.5711 47.9079C48.0793 46.9805 47.4119 46.2639 46.5688 45.758C45.7257 45.2381 44.7703 44.9782 43.7024 44.9782C42.7047 44.9782 41.7633 45.2311 40.878 45.7369C40.0069 46.2428 39.2973 46.9524 38.7493 47.8657C38.2013 48.779 37.9273 49.861 37.9273 51.1115Z" fill="#213786"/>
<path d="M58.2771 59.7531V42.4489H61.9444V59.7531H58.2771ZM60.1529 36.5263C59.4925 36.5263 58.9234 36.2945 58.4457 35.8308C57.982 35.353 57.7501 34.784 57.7501 34.1235C57.7501 33.4631 57.982 32.8941 58.4457 32.4163C58.9234 31.9386 59.4925 31.6997 60.1529 31.6997C60.5885 31.6997 60.9889 31.8121 61.3543 32.0369C61.7337 32.2618 62.0358 32.5568 62.2606 32.9222C62.4854 33.2734 62.5978 33.6739 62.5978 34.1235C62.5978 34.784 62.3589 35.353 61.8812 35.8308C61.4035 36.2945 60.8274 36.5263 60.1529 36.5263Z" fill="#213786"/>
<path d="M77.2249 41.9431C78.363 41.9431 79.4661 42.182 80.534 42.6597C81.6159 43.1374 82.5011 43.8962 83.1896 44.936C83.8922 45.9618 84.2435 47.3037 84.2435 48.9617V59.7531H80.534V49.6783C80.534 47.9641 80.1335 46.7205 79.3326 45.9477C78.5317 45.1608 77.4989 44.7674 76.2343 44.7674C75.4052 44.7674 74.6043 45.0063 73.8315 45.484C73.0727 45.9477 72.4474 46.5941 71.9557 47.4231C71.4639 48.2381 71.218 49.1654 71.218 50.2052V59.7531H67.5506V42.4489H71.218V45.5262C71.3444 45.0484 71.6887 44.5285 72.2507 43.9665C72.8128 43.4044 73.5294 42.9267 74.4006 42.5332C75.2718 42.1398 76.2132 41.9431 77.2249 41.9431Z" fill="#213786"/>
<path d="M126.907 54.5275C126.531 54.6068 126.144 54.6763 125.767 54.7854C124.389 55.1721 123.03 55.6085 121.651 55.9655C119.628 56.4812 117.585 56.9274 115.552 57.4233C114.303 57.7307 113.053 58.0679 111.804 58.3753C111.645 58.415 111.457 58.3357 111.169 58.296C110.594 58.8514 110.346 58.8514 109.642 58.1869C109.553 58.1076 109.374 58.0778 109.255 58.0977C108.591 58.2167 107.926 58.3555 107.262 58.5043C107.143 58.534 107.004 58.6034 106.934 58.6927C106.27 59.6348 106.062 59.6646 105.139 58.9704C105.1 58.9902 105.04 58.9902 105.01 59.0299C104.098 60.0216 102.849 60.2398 101.619 60.4976C99.0007 61.053 96.3627 61.3604 93.705 60.8546C93.0108 60.7257 92.3463 60.4778 91.5926 60.2695C91.8306 59.6943 92.0191 59.2084 92.2372 58.7423C92.3463 58.4943 92.3562 58.3059 92.1281 58.1373C91.7711 57.8795 91.4439 57.5621 91.0571 57.3836C89.9761 56.858 89.4406 55.8167 89.7084 54.4878C90.0257 52.8912 90.8092 51.5127 91.8108 50.2731C95.4008 45.8401 100.102 43.579 105.764 43.2815C107.48 43.1922 109.076 43.6683 110.614 44.4715C116.346 47.4467 122.108 50.3821 127.85 53.3275C128.425 53.625 128.464 53.992 127.919 54.349C127.493 54.6267 127.026 54.8845 126.55 55.063C121.641 56.8878 116.733 58.7026 111.814 60.5174C111.695 60.5571 111.566 60.5869 111.367 60.6464C111.367 60.2893 111.328 59.972 111.387 59.6844C111.417 59.5456 111.645 59.4166 111.804 59.3571C114.085 58.6332 116.375 57.9192 118.656 57.2051C121.275 56.382 123.893 55.5688 126.511 54.7457C126.65 54.706 126.788 54.6465 126.927 54.5969C126.917 54.5771 126.907 54.5473 126.907 54.5275ZM111.655 48.8946C113.073 49.202 114.481 49.5094 115.899 49.8169C115.87 49.6681 115.81 49.6086 115.741 49.5888C113.757 48.9144 111.774 48.2301 109.781 47.5756C109.582 47.5062 109.295 47.4963 109.116 47.5954C108.481 47.9227 107.877 48.2996 107.262 48.6566C107.281 48.6962 107.301 48.726 107.331 48.7657C108.234 48.7657 109.136 48.7657 110.038 48.7657C110.038 50.2036 110.038 51.5722 110.038 52.911C109.235 52.911 108.462 52.911 107.688 52.911C106.32 52.911 104.921 52.7424 103.592 52.9606C100.478 53.4664 97.404 54.1804 94.3099 54.7854C93.1199 55.0134 91.91 55.3407 90.7695 54.4581C90.7298 54.7358 90.6902 54.944 90.6802 55.1622C90.6505 55.9456 90.8389 56.1936 91.6125 56.2531C92.267 56.3027 92.9314 56.2928 93.5959 56.2729C96.6801 56.1737 99.685 55.5093 102.71 54.9837C104.435 54.6862 106.151 54.2399 107.886 54.1903C112.042 54.0713 116.207 54.1407 120.372 54.1308C120.551 54.1308 120.729 54.1308 120.918 54.1308C120.918 53.873 120.918 53.6746 120.918 53.4565C120.729 53.4465 120.58 53.4366 120.432 53.4267C117.675 53.3176 114.918 53.1887 112.161 53.0994C111.675 53.0796 111.566 52.9209 111.576 52.4548C111.615 51.4829 111.586 50.5012 111.586 49.5293C111.595 49.3111 111.635 49.1028 111.655 48.8946ZM96.8189 47.5161C96.9479 47.5558 96.9875 47.5756 97.0371 47.5756C99.1296 47.4764 101.222 47.3872 103.315 47.2781C103.444 47.2682 103.592 47.1789 103.691 47.0897C104.435 46.2963 105.367 45.8401 106.429 45.731C107.222 45.6418 108.035 45.7211 108.838 45.7013C109.027 45.6913 109.305 45.6219 109.374 45.493C109.443 45.3542 109.374 45.0666 109.265 44.9178C109.146 44.7393 108.938 44.5707 108.729 44.5013C108.214 44.3426 107.688 44.174 107.153 44.1443C104.406 43.9658 101.807 44.6005 99.3379 45.7608C98.4255 46.1773 97.5826 46.7227 96.8189 47.5161ZM92.5347 57.1159C92.9413 57.4332 93.2587 57.7109 93.6256 57.939C93.8636 58.0877 94.1512 58.2266 94.4289 58.2464C97.2255 58.4348 99.9924 58.2663 102.759 57.7902C104.306 57.5225 105.566 56.9076 106.488 55.6283C106.627 55.43 106.756 55.2316 106.885 55.0333C106.855 54.9837 106.835 54.9242 106.805 54.8746C105.288 55.1721 103.771 55.4597 102.263 55.7572C100.369 56.1242 98.485 56.5605 96.5809 56.8481C95.2719 57.0464 93.943 57.0365 92.5347 57.1159ZM92.8719 59.8034C93.5265 59.8927 94.0124 59.9819 94.4983 60.0315C97.2652 60.329 100.002 60.2398 102.68 59.3869C103.315 59.1885 103.672 58.8018 103.88 58.2068C103.84 58.1869 103.811 58.1671 103.781 58.177C103.701 58.1869 103.622 58.2068 103.543 58.2266C100.459 59.01 97.3445 59.3571 94.1711 58.8712C94.0421 58.8514 93.8636 58.8811 93.7645 58.9704C93.4868 59.1786 93.2389 59.4464 92.8719 59.8034ZM112.637 54.9738C111.328 54.9738 110.038 54.9936 108.759 54.9639C108.105 54.944 107.619 55.0829 107.252 55.6977C106.944 56.2035 106.458 56.6002 106.052 57.0464C106.062 57.0762 106.082 57.1159 106.091 57.1456C108.412 56.7489 110.733 56.3522 113.043 55.9556C112.875 55.5589 112.746 55.2316 112.637 54.9738ZM102.303 47.8929C102.144 47.8929 101.986 47.883 101.837 47.8929C100.072 47.9921 98.3164 48.131 96.5512 48.2004C95.5694 48.2301 94.9446 48.8053 94.3297 49.4202C94.2603 49.4896 94.2504 49.6185 94.1611 49.8764C97.0569 49.678 99.685 48.8152 102.303 47.8929ZM109.87 46.2368C113.232 47.5954 116.544 48.9243 119.846 50.2631C119.866 50.2235 119.876 50.1937 119.896 50.1541C116.723 48.6169 113.549 47.0797 110.395 45.5525C110.207 45.7905 110.058 45.9789 109.87 46.2368ZM113.301 54.7159C113.648 55.6977 113.648 55.7076 114.521 55.6184C115.552 55.5093 116.594 55.3903 117.625 55.2911C118.061 55.2515 118.2 55.0729 118.101 54.7159C116.504 54.7159 114.938 54.7159 113.301 54.7159ZM126.63 54.1209C126.62 54.0911 126.62 54.0713 126.61 54.0416C124.904 53.873 123.208 53.7044 121.483 53.5259C121.483 53.7639 121.483 53.9325 121.483 54.1209C123.228 54.1209 124.924 54.1209 126.63 54.1209ZM121.632 54.5672C121.066 54.5672 120.551 54.5672 119.866 54.5672C120.045 54.7953 120.114 55.0035 120.243 55.0333C120.818 55.1721 121.433 54.9738 121.632 54.5672ZM124.676 54.6366C124.676 54.5969 124.676 54.5672 124.666 54.5275C123.972 54.5275 123.288 54.5176 122.594 54.5374C122.524 54.5374 122.445 54.6564 122.375 54.7258C122.455 54.7754 122.544 54.8845 122.623 54.8746C123.308 54.8052 123.992 54.7159 124.676 54.6366Z" fill="#213786"/>
<path d="M111.655 48.8946C111.367 48.9937 111.278 49.1921 111.288 49.4995C111.308 50.6499 111.298 51.8003 111.298 52.9408C110.485 53.1689 110.366 53.0796 110.366 52.3061C110.366 51.1557 110.366 50.0053 110.366 48.7954C110.822 48.8351 111.238 48.8648 111.655 48.8946Z" fill="#213786"/>
<path d="M63.1539 34.1176C63.1539 35.7212 61.8539 37.0212 60.2502 37.0212C58.6466 37.0212 57.3466 35.7212 57.3466 34.1176C57.3466 32.514 58.6466 31.214 60.2502 31.214C61.8539 31.214 63.1539 32.514 63.1539 34.1176Z" fill="#00C136"/>
<path d="M15.4766 76.5831H14.314V72.4148C14.314 71.6114 14.1887 71.0301 13.9383 70.671C13.6925 70.3118 13.2766 70.1322 12.6906 70.1322C12.1944 70.1322 11.7714 70.3591 11.4217 70.8127C11.0767 71.2664 10.9042 71.8099 10.9042 72.4432V76.5831H9.74161V72.2731C9.74161 70.8458 9.19104 70.1322 8.08989 70.1322C7.57948 70.1322 7.15887 70.3472 6.82806 70.7773C6.49724 71.2026 6.33183 71.7579 6.33183 72.4432V76.5831H5.16925V69.3241H6.33183V70.4725H6.36019C6.87532 69.5935 7.62674 69.1539 8.61447 69.1539C9.11069 69.1539 9.54312 69.2934 9.91174 69.5722C10.2804 69.8463 10.5332 70.2078 10.6703 70.6568C11.209 69.6549 12.0124 69.1539 13.0805 69.1539C14.6779 69.1539 15.4766 70.1393 15.4766 72.11V76.5831Z" fill="#213786"/>
<path d="M22.8703 76.5831H21.7077V75.4489H21.6794C21.1737 76.3185 20.4294 76.7533 19.4464 76.7533C18.7233 76.7533 18.1562 76.5619 17.745 76.1791C17.3386 75.7963 17.1354 75.2882 17.1354 74.6549C17.1354 73.2986 17.934 72.5094 19.5314 72.2872L21.7077 71.9824C21.7077 70.7489 21.2091 70.1322 20.212 70.1322C19.3377 70.1322 18.5484 70.4299 17.8443 71.0254V69.8345C18.5579 69.3808 19.3802 69.1539 20.3112 69.1539C22.0173 69.1539 22.8703 70.0566 22.8703 71.8619V76.5831ZM21.7077 72.9111L19.9568 73.1521C19.418 73.2277 19.0116 73.3624 18.7375 73.5562C18.4634 73.7452 18.3263 74.0831 18.3263 74.5699C18.3263 74.9243 18.4515 75.215 18.702 75.4418C18.9572 75.6639 19.2951 75.775 19.7157 75.775C20.2923 75.775 20.7673 75.5741 21.1406 75.1724C21.5187 74.766 21.7077 74.2532 21.7077 73.6341V72.9111Z" fill="#213786"/>
<path d="M31.0864 76.5831H29.9238V72.4432C29.9238 70.9025 29.3614 70.1322 28.2366 70.1322C27.6553 70.1322 27.1733 70.352 26.7905 70.7915C26.4124 71.2263 26.2234 71.7768 26.2234 72.4432V76.5831H25.0608V69.3241H26.2234V70.5292H26.2517C26.7999 69.6124 27.5939 69.1539 28.6336 69.1539C29.4276 69.1539 30.0349 69.4115 30.4555 69.9266C30.8761 70.437 31.0864 71.1766 31.0864 72.1455V76.5831Z" fill="#213786"/>
<path d="M38.4801 76.5831H37.3175V75.4489H37.2892C36.7835 76.3185 36.0392 76.7533 35.0562 76.7533C34.3331 76.7533 33.766 76.5619 33.3548 76.1791C32.9484 75.7963 32.7452 75.2882 32.7452 74.6549C32.7452 73.2986 33.5439 72.5094 35.1412 72.2872L37.3175 71.9824C37.3175 70.7489 36.819 70.1322 35.8218 70.1322C34.9475 70.1322 34.1582 70.4299 33.4541 71.0254V69.8345C34.1677 69.3808 34.99 69.1539 35.921 69.1539C37.6271 69.1539 38.4801 70.0566 38.4801 71.8619V76.5831ZM37.3175 72.9111L35.5666 73.1521C35.0278 73.2277 34.6214 73.3624 34.3473 73.5562C34.0732 73.7452 33.9361 74.0831 33.9361 74.5699C33.9361 74.9243 34.0614 75.215 34.3118 75.4418C34.567 75.6639 34.9049 75.775 35.3256 75.775C35.9021 75.775 36.3771 75.5741 36.7504 75.1724C37.1285 74.766 37.3175 74.2532 37.3175 73.6341V72.9111Z" fill="#213786"/>
<path d="M46.8663 76.0018C46.8663 78.6673 45.5903 80 43.0383 80C42.1404 80 41.3559 79.8299 40.6848 79.4896V78.327C41.5024 78.7807 42.2822 79.0075 43.0241 79.0075C44.8105 79.0075 45.7038 78.0576 45.7038 76.1578V75.3638H45.6754C45.1225 76.2901 44.2907 76.7533 43.1801 76.7533C42.2774 76.7533 41.5496 76.4319 40.9967 75.7892C40.4485 75.1417 40.1744 74.2745 40.1744 73.1875C40.1744 71.9541 40.4698 70.9734 41.0605 70.2456C41.656 69.5178 42.4688 69.1539 43.4991 69.1539C44.4774 69.1539 45.2028 69.5462 45.6754 70.3307H45.7038V69.3241H46.8663V76.0018ZM45.7038 73.301V72.2305C45.7038 71.654 45.5076 71.1601 45.1154 70.7489C44.7278 70.3378 44.2434 70.1322 43.6621 70.1322C42.9438 70.1322 42.3814 70.3945 41.975 70.9191C41.5685 71.4389 41.3653 72.1691 41.3653 73.1096C41.3653 73.9177 41.5591 74.5652 41.9466 75.0519C42.3389 75.534 42.8564 75.775 43.4991 75.775C44.1513 75.775 44.6806 75.5434 45.087 75.0803C45.4982 74.6171 45.7038 74.024 45.7038 73.301Z" fill="#213786"/>
<path d="M49.8153 67.4809C49.6074 67.4809 49.4302 67.4101 49.2837 67.2683C49.1372 67.1265 49.0639 66.9469 49.0639 66.7295C49.0639 66.5121 49.1372 66.3325 49.2837 66.1908C49.4302 66.0443 49.6074 65.971 49.8153 65.971C50.028 65.971 50.2076 66.0443 50.3541 66.1908C50.5053 66.3325 50.5809 66.5121 50.5809 66.7295C50.5809 66.9375 50.5053 67.1147 50.3541 67.2612C50.2076 67.4077 50.028 67.4809 49.8153 67.4809ZM50.3824 76.5831H49.2199V69.3241H50.3824V76.5831Z" fill="#213786"/>
<path d="M58.7616 76.5831H57.599V72.4432C57.599 70.9025 57.0366 70.1322 55.9118 70.1322C55.3305 70.1322 54.8485 70.352 54.4657 70.7915C54.0876 71.2263 53.8986 71.7768 53.8986 72.4432V76.5831H52.736V69.3241H53.8986V70.5292H53.9269C54.4751 69.6124 55.2691 69.1539 56.3088 69.1539C57.1028 69.1539 57.71 69.4115 58.1306 69.9266C58.5513 70.437 58.7616 71.1766 58.7616 72.1455V76.5831Z" fill="#213786"/>
<path d="M67.1549 76.0018C67.1549 78.6673 65.8789 80 63.3268 80C62.4289 80 61.6444 79.8299 60.9733 79.4896V78.327C61.7909 78.7807 62.5707 79.0075 63.3127 79.0075C65.0991 79.0075 65.9923 78.0576 65.9923 76.1578V75.3638H65.9639C65.411 76.2901 64.5792 76.7533 63.4686 76.7533C62.566 76.7533 61.8382 76.4319 61.2852 75.7892C60.737 75.1417 60.4629 74.2745 60.4629 73.1875C60.4629 71.9541 60.7583 70.9734 61.349 70.2456C61.9445 69.5178 62.7574 69.1539 63.7876 69.1539C64.7659 69.1539 65.4913 69.5462 65.9639 70.3307H65.9923V69.3241H67.1549V76.0018ZM65.9923 73.301V72.2305C65.9923 71.654 65.7961 71.1601 65.4039 70.7489C65.0164 70.3378 64.532 70.1322 63.9507 70.1322C63.2323 70.1322 62.6699 70.3945 62.2635 70.9191C61.8571 71.4389 61.6538 72.1691 61.6538 73.1096C61.6538 73.9177 61.8476 74.5652 62.2351 75.0519C62.6274 75.534 63.1449 75.775 63.7876 75.775C64.4398 75.775 64.9691 75.5434 65.3755 75.0803C65.7867 74.6171 65.9923 74.024 65.9923 73.301Z" fill="#213786"/>
<path d="M76.8596 76.5122C76.5855 76.6635 76.224 76.7391 75.775 76.7391C74.5037 76.7391 73.8681 76.0302 73.8681 74.6124V70.3165H72.6204V69.3241H73.8681V67.5518L75.0307 67.1761V69.3241H76.8596V70.3165H75.0307V74.4068C75.0307 74.8936 75.1134 75.241 75.2788 75.4489C75.4442 75.6568 75.7183 75.7608 76.1011 75.7608C76.3941 75.7608 76.6469 75.6805 76.8596 75.5198V76.5122Z" fill="#213786"/>
<path d="M82.1976 70.5008C81.9944 70.3449 81.7013 70.2669 81.3185 70.2669C80.8223 70.2669 80.4064 70.5008 80.0709 70.9687C79.7401 71.4366 79.5747 72.0746 79.5747 72.8827V76.5831H78.4121V69.3241H79.5747V70.8198H79.603C79.7684 70.3094 80.0213 69.9125 80.3615 69.6289C80.7018 69.3406 81.0822 69.1965 81.5029 69.1965C81.8053 69.1965 82.0369 69.2296 82.1976 69.2957V70.5008Z" fill="#213786"/>
<path d="M88.6556 76.5831H87.493V75.4489H87.4646C86.959 76.3185 86.2146 76.7533 85.2316 76.7533C84.5086 76.7533 83.9414 76.5619 83.5303 76.1791C83.1239 75.7963 82.9206 75.2882 82.9206 74.6549C82.9206 73.2986 83.7193 72.5094 85.3167 72.2872L87.493 71.9824C87.493 70.7489 86.9944 70.1322 85.9972 70.1322C85.1229 70.1322 84.3337 70.4299 83.6295 71.0254V69.8345C84.3431 69.3808 85.1655 69.1539 86.0965 69.1539C87.8026 69.1539 88.6556 70.0566 88.6556 71.8619V76.5831ZM87.493 72.9111L85.742 73.1521C85.2033 73.2277 84.7968 73.3624 84.5227 73.5562C84.2486 73.7452 84.1116 74.0831 84.1116 74.5699C84.1116 74.9243 84.2368 75.215 84.4873 75.4418C84.7425 75.6639 85.0804 75.775 85.501 75.775C86.0776 75.775 86.5525 75.5741 86.9259 75.1724C87.304 74.766 87.493 74.2532 87.493 73.6341V72.9111Z" fill="#213786"/>
<path d="M91.4415 67.4809C91.2336 67.4809 91.0564 67.4101 90.9099 67.2683C90.7634 67.1265 90.6901 66.9469 90.6901 66.7295C90.6901 66.5121 90.7634 66.3325 90.9099 66.1908C91.0564 66.0443 91.2336 65.971 91.4415 65.971C91.6542 65.971 91.8338 66.0443 91.9803 66.1908C92.1315 66.3325 92.2071 66.5121 92.2071 66.7295C92.2071 66.9375 92.1315 67.1147 91.9803 67.2612C91.8338 67.4077 91.6542 67.4809 91.4415 67.4809ZM92.0086 76.5831H90.8461V69.3241H92.0086V76.5831Z" fill="#213786"/>
<path d="M100.388 76.5831H99.2252V72.4432C99.2252 70.9025 98.6628 70.1322 97.538 70.1322C96.9567 70.1322 96.4747 70.352 96.0919 70.7915C95.7138 71.2263 95.5248 71.7768 95.5248 72.4432V76.5831H94.3622V69.3241H95.5248V70.5292H95.5531C96.1013 69.6124 96.8953 69.1539 97.935 69.1539C98.729 69.1539 99.3362 69.4115 99.7569 69.9266C100.177 70.437 100.388 71.1766 100.388 72.1455V76.5831Z" fill="#213786"/>
<path d="M109.937 76.5122C109.662 76.6635 109.301 76.7391 108.852 76.7391C107.581 76.7391 106.945 76.0302 106.945 74.6124V70.3165H105.697V69.3241H106.945V67.5518L108.108 67.1761V69.3241H109.937V70.3165H108.108V74.4068C108.108 74.8936 108.19 75.241 108.356 75.4489C108.521 75.6568 108.795 75.7608 109.178 75.7608C109.471 75.7608 109.724 75.6805 109.937 75.5198V76.5122Z" fill="#213786"/>
<path d="M115.275 70.5008C115.071 70.3449 114.778 70.2669 114.395 70.2669C113.899 70.2669 113.483 70.5008 113.148 70.9687C112.817 71.4366 112.652 72.0746 112.652 72.8827V76.5831H111.489V69.3241H112.652V70.8198H112.68C112.845 70.3094 113.098 69.9125 113.438 69.6289C113.779 69.3406 114.159 69.1965 114.58 69.1965C114.882 69.1965 115.114 69.2296 115.275 69.2957V70.5008Z" fill="#213786"/>
<path d="M117.132 67.4809C116.924 67.4809 116.747 67.4101 116.6 67.2683C116.454 67.1265 116.38 66.9469 116.38 66.7295C116.38 66.5121 116.454 66.3325 116.6 66.1908C116.747 66.0443 116.924 65.971 117.132 65.971C117.344 65.971 117.524 66.0443 117.671 66.1908C117.822 66.3325 117.897 66.5121 117.897 66.7295C117.897 66.9375 117.822 67.1147 117.671 67.2612C117.524 67.4077 117.344 67.4809 117.132 67.4809ZM117.699 76.5831H116.536V69.3241H117.699V76.5831Z" fill="#213786"/>
<path d="M121.243 75.534H121.215V79.922H120.052V69.3241H121.215V70.6001H121.243C121.815 69.636 122.652 69.1539 123.753 69.1539C124.689 69.1539 125.419 69.48 125.943 70.1322C126.468 70.7797 126.73 71.6492 126.73 72.7409C126.73 73.9555 126.435 74.9291 125.844 75.6616C125.253 76.3894 124.445 76.7533 123.42 76.7533C122.479 76.7533 121.754 76.3468 121.243 75.534ZM121.215 72.6062V73.62C121.215 74.2202 121.409 74.7306 121.796 75.1512C122.189 75.5671 122.685 75.775 123.285 75.775C123.989 75.775 124.54 75.5056 124.937 74.9669C125.338 74.4281 125.539 73.679 125.539 72.7197C125.539 71.9115 125.353 71.2783 124.979 70.8198C124.606 70.3614 124.1 70.1322 123.462 70.1322C122.786 70.1322 122.243 70.3685 121.832 70.8411C121.421 71.309 121.215 71.8974 121.215 72.6062Z" fill="#213786"/>
<path d="M128.148 76.3208V75.0732C128.781 75.5411 129.478 75.775 130.239 75.775C131.26 75.775 131.77 75.4347 131.77 74.7542C131.77 74.5604 131.726 74.3974 131.636 74.2651C131.551 74.128 131.433 74.0075 131.281 73.9035C131.135 73.7995 130.96 73.7074 130.757 73.6271C130.558 73.542 130.343 73.4546 130.112 73.3648C129.79 73.2372 129.507 73.1096 129.261 72.982C129.02 72.8496 128.817 72.7031 128.651 72.5424C128.491 72.377 128.368 72.1904 128.283 71.9824C128.202 71.7745 128.162 71.5311 128.162 71.2523C128.162 70.912 128.24 70.6119 128.396 70.352C128.552 70.0873 128.76 69.8676 129.02 69.6927C129.28 69.5131 129.575 69.3784 129.906 69.2886C130.242 69.1988 130.587 69.1539 130.941 69.1539C131.57 69.1539 132.132 69.2626 132.628 69.48V70.6568C132.094 70.3071 131.48 70.1322 130.785 70.1322C130.568 70.1322 130.372 70.1582 130.197 70.2102C130.022 70.2574 129.871 70.326 129.743 70.4158C129.62 70.5056 129.523 70.6143 129.452 70.7419C129.386 70.8647 129.353 71.0018 129.353 71.153C129.353 71.342 129.386 71.5004 129.452 71.628C129.523 71.7556 129.625 71.869 129.757 71.9682C129.89 72.0675 130.05 72.1573 130.239 72.2376C130.428 72.318 130.643 72.4054 130.884 72.4999C131.206 72.6228 131.494 72.7504 131.749 72.8827C132.004 73.0103 132.222 73.1568 132.401 73.3222C132.581 73.4829 132.718 73.6696 132.813 73.8823C132.912 74.0949 132.961 74.3478 132.961 74.6408C132.961 74.9999 132.881 75.3119 132.72 75.5765C132.564 75.8412 132.354 76.0609 132.089 76.2358C131.825 76.4106 131.52 76.5406 131.175 76.6257C130.83 76.7107 130.468 76.7533 130.09 76.7533C129.344 76.7533 128.696 76.6091 128.148 76.3208Z" fill="#213786"/>
</svg>
