<svg width="400" height="400" viewBox="0 0 400 400" fill="none" xmlns="http://www.w3.org/2000/svg">
<rect width="400" height="400" fill="white"/>
<path d="M98.5351 267.536L207.118 12H209.839L360.922 379.644H311.036L195.327 80.9901L226.619 60.5654L147.708 267.536H98.5351ZM147.708 229.41H269.702L284.214 267.536H135.01L147.708 229.41Z" fill="#213786"/>
<path d="M323.107 347.493C320.79 347.981 318.412 348.408 316.096 349.079C307.621 351.459 299.269 354.144 290.794 356.34C278.357 359.513 265.798 362.259 253.3 365.31C245.618 367.201 237.936 369.276 230.254 371.168C229.278 371.412 228.12 370.923 226.352 370.679C222.816 374.096 221.292 374.096 216.963 370.008C216.414 369.52 215.317 369.337 214.585 369.459C210.501 370.191 206.416 371.046 202.331 371.961C201.599 372.144 200.746 372.571 200.319 373.12C196.234 378.917 194.954 379.1 189.284 374.829C189.04 374.951 188.674 374.951 188.492 375.195C182.883 381.296 175.201 382.639 167.641 384.225C151.545 387.642 135.328 389.534 118.989 386.422C114.721 385.629 110.636 384.103 106.003 382.822C107.466 379.283 108.625 376.293 109.966 373.425C110.636 371.9 110.697 370.74 109.295 369.703C107.1 368.117 105.088 366.164 102.711 365.066C96.0653 361.832 92.7731 355.425 94.4192 347.249C96.3701 337.425 101.187 328.944 107.344 321.316C129.414 294.042 158.313 280.13 193.125 278.299C203.672 277.75 213.488 280.679 222.938 285.621C258.177 303.926 293.599 321.988 328.899 340.11C332.435 341.94 332.679 344.198 329.326 346.395C326.704 348.103 323.839 349.689 320.912 350.788C290.733 362.015 260.555 373.181 230.315 384.347C229.583 384.591 228.791 384.774 227.571 385.141C227.571 382.944 227.328 380.991 227.693 379.222C227.876 378.368 229.278 377.574 230.254 377.208C244.276 372.754 258.36 368.361 272.382 363.968C288.478 358.903 304.573 353.9 320.668 348.835C321.522 348.591 322.375 348.225 323.229 347.92C323.168 347.798 323.107 347.615 323.107 347.493ZM229.34 312.835C238.058 314.727 246.715 316.618 255.433 318.51C255.251 317.594 254.885 317.228 254.458 317.106C242.264 312.957 230.071 308.747 217.817 304.72C216.597 304.293 214.829 304.232 213.732 304.842C209.83 306.855 206.111 309.174 202.331 311.371C202.453 311.615 202.575 311.798 202.758 312.042C208.306 312.042 213.854 312.042 219.402 312.042C219.402 320.889 219.402 329.31 219.402 337.547C214.464 337.547 209.708 337.547 204.953 337.547C196.539 337.547 187.943 336.51 179.773 337.852C160.63 340.964 141.73 345.357 122.708 349.079C115.392 350.483 107.954 352.496 100.943 347.066C100.699 348.774 100.455 350.056 100.394 351.398C100.211 356.218 101.37 357.744 106.125 358.11C110.149 358.415 114.234 358.354 118.318 358.232C137.279 357.622 155.752 353.534 174.347 350.3C184.955 348.469 195.503 345.723 206.172 345.418C231.717 344.686 257.323 345.113 282.93 345.052C284.027 345.052 285.124 345.052 286.283 345.052C286.283 343.466 286.283 342.245 286.283 340.903C285.124 340.842 284.21 340.781 283.295 340.72C266.346 340.049 249.398 339.256 232.449 338.706C229.461 338.584 228.791 337.608 228.852 334.74C229.096 328.761 228.913 322.72 228.913 316.74C228.974 315.398 229.218 314.116 229.34 312.835ZM138.133 304.354C138.925 304.598 139.169 304.72 139.474 304.72C152.338 304.11 165.202 303.56 178.066 302.889C178.859 302.828 179.773 302.279 180.383 301.73C184.955 296.848 190.686 294.042 197.21 293.37C202.087 292.821 207.086 293.309 212.025 293.187C213.183 293.126 214.89 292.699 215.317 291.906C215.744 291.052 215.317 289.282 214.646 288.367C213.915 287.269 212.634 286.231 211.354 285.804C208.184 284.828 204.953 283.791 201.66 283.608C184.773 282.509 168.799 286.415 153.618 293.554C148.009 296.116 142.827 299.472 138.133 304.354ZM111.795 363.418C114.295 365.371 116.245 367.079 118.501 368.483C119.964 369.398 121.732 370.252 123.44 370.374C140.632 371.534 157.642 370.496 174.652 367.568C184.163 365.92 191.906 362.137 197.576 354.266C198.429 353.045 199.222 351.825 200.014 350.605C199.831 350.3 199.709 349.934 199.527 349.628C190.199 351.459 180.871 353.228 171.604 355.059C159.959 357.317 148.375 360.001 136.669 361.771C128.622 362.991 120.452 362.93 111.795 363.418ZM113.868 379.954C117.892 380.503 120.879 381.052 123.866 381.357C140.876 383.188 157.703 382.639 174.164 377.391C178.066 376.171 180.261 373.791 181.541 370.13C181.297 370.008 181.114 369.886 180.932 369.947C180.444 370.008 179.956 370.13 179.468 370.252C160.508 375.073 141.364 377.208 121.854 374.218C121.062 374.096 119.964 374.279 119.355 374.829C117.648 376.11 116.124 377.757 113.868 379.954ZM235.375 350.239C227.328 350.239 219.402 350.361 211.537 350.178C207.513 350.056 204.526 350.91 202.27 354.693C200.38 357.805 197.393 360.245 194.893 362.991C194.954 363.174 195.076 363.418 195.137 363.601C209.403 361.161 223.67 358.72 237.875 356.279C236.838 353.839 236.046 351.825 235.375 350.239ZM171.847 306.672C170.872 306.672 169.897 306.611 168.982 306.672C158.13 307.282 147.339 308.137 136.487 308.564C130.451 308.747 126.61 312.286 122.83 316.069C122.403 316.496 122.342 317.289 121.793 318.876C139.596 317.655 155.752 312.347 171.847 306.672ZM218.365 296.482C239.033 304.842 259.396 313.018 279.698 321.255C279.82 321.011 279.881 320.828 280.003 320.584C260.494 311.127 240.984 301.669 221.597 292.272C220.438 293.737 219.524 294.896 218.365 296.482ZM239.46 348.652C241.594 354.693 241.594 354.754 246.959 354.205C253.3 353.534 259.701 352.801 266.042 352.191C268.724 351.947 269.578 350.849 268.968 348.652C259.152 348.652 249.52 348.652 239.46 348.652ZM321.4 344.991C321.339 344.808 321.339 344.686 321.278 344.503C310.792 343.466 300.366 342.428 289.758 341.33C289.758 342.795 289.758 343.832 289.758 344.991C300.488 344.991 310.914 344.991 321.4 344.991ZM290.672 347.737C287.197 347.737 284.027 347.737 279.82 347.737C280.918 349.14 281.344 350.422 282.137 350.605C285.673 351.459 289.453 350.239 290.672 347.737ZM309.389 348.164C309.389 347.92 309.389 347.737 309.328 347.493C305.061 347.493 300.854 347.432 296.586 347.554C296.159 347.554 295.672 348.286 295.245 348.713C295.733 349.018 296.281 349.689 296.769 349.628C300.976 349.201 305.183 348.652 309.389 348.164Z" fill="#213786"/>
<path d="M229.34 312.835C227.571 313.445 227.023 314.666 227.084 316.557C227.206 323.635 227.145 330.713 227.145 337.73C222.145 339.133 221.414 338.584 221.414 333.825C221.414 326.747 221.414 319.669 221.414 312.225C224.218 312.469 226.779 312.652 229.34 312.835Z" fill="#213786"/>
</svg>
